<?xml version="1.0" standalone="no"?>
<!DOCTYPE svg PUBLIC "-//W3C//DTD SVG 20010904//EN"
 "http://www.w3.org/TR/2001/REC-SVG-20010904/DTD/svg10.dtd">
<svg version="1.0" xmlns="http://www.w3.org/2000/svg"
 width="800.000000pt" height="800.000000pt" viewBox="0 0 800.000000 800.000000"
 preserveAspectRatio="xMidYMid meet">
<metadata>
Created by potrace 1.16, written by Peter Selinger 2001-2019
</metadata>
<g transform="translate(0.000000,800.000000) scale(0.100000,-0.100000)"
fill="#000000" stroke="none">
<path d="M3735 6989 c-691 -60 -1354 -371 -1853 -869 -753 -751 -1051 -1836
-787 -2865 271 -1055 1104 -1889 2160 -2160 1173 -301 2407 132 3138 1102 901
1194 787 2856 -268 3916 -572 575 -1341 893 -2145 886 -80 -1 -190 -6 -245
-10z m625 -514 c422 -65 813 -229 1157 -486 125 -94 377 -346 470 -470 215
-287 375 -628 448 -953 49 -218 59 -315 59 -566 0 -251 -10 -348 -59 -566 -73
-325 -233 -666 -448 -953 -92 -123 -345 -376 -468 -468 -352 -263 -733 -422
-1176 -490 -150 -23 -536 -23 -686 0 -285 44 -517 116 -762 237 -669 330
-1152 934 -1325 1655 -52 218 -64 328 -64 585 0 254 12 366 61 575 58 246 184
548 316 757 363 575 957 984 1622 1117 83 17 193 35 245 40 133 14 483 5 610
-14z"/>
<path d="M3827 5485 c-165 -31 -319 -103 -454 -210 -205 -161 -347 -430 -369
-697 l-7 -78 249 0 249 0 13 78 c53 339 427 524 732 361 31 -16 80 -53 108
-82 182 -186 202 -451 47 -643 -51 -62 -132 -112 -241 -148 -139 -46 -180 -69
-255 -145 -71 -72 -119 -157 -138 -249 -6 -29 -11 -136 -11 -237 l0 -185 250
0 250 0 0 159 0 158 93 33 c482 167 747 647 627 1140 -47 193 -187 411 -344
537 -100 79 -271 165 -386 193 -113 28 -307 35 -413 15z"/>
<path d="M3750 2750 l0 -250 250 0 250 0 0 250 0 250 -250 0 -250 0 0 -250z"/>
</g>
</svg>
